<svg viewBox="0 0 24 24" xmlns="http://www.w3.org/2000/svg">
  <defs>
    <linearGradient id="fav-grad" x1="0%" y1="0%" x2="100%" y2="100%">
      <stop offset="0%" stop-color="#06b6d4" />
      <stop offset="100%" stop-color="#0d9488" />
    </linearGradient>
  </defs>
  <path fill="url(#fav-grad)" d="M12 2C11.5 2 11 2.5 11 3v4.2c-1.5-.7-3.2-1.2-5-1.2-3.3 0-6 2.7-6 6 0 2.2 1.2 4.1 3 5.1v1.9c0 .6.4 1 1 1h1c.6 0 1-.4 1-1v-1.1c.3.1.7.1 1 .1 3.3 0 6-2.7 6-6V7c0-2.8-2.2-5-5-5zm-5 11c-1.7 0-3-1.3-3-3s1.3-3 3-3 3 1.3 3 3-1.3 3-3 3zm12-7c-1.8 0-3.5.5-5 1.2V11c0 3.3 2.7 6 6 6 .3 0 .7 0 1-.1V18c0 .6.4 1 1 1h1c.6 0 1-.4 1-1v-1.9c1.8-1 3-2.9 3-5.1 0-3.3-2.7-6-6-6zm1 7c-1.7 0-3-1.3-3-3s1.3-3 3-3 3 1.3 3 3-1.3 3-3 3z"/>
</svg>
